<?xml version="1.0" encoding="utf-8"?>
<!-- Generator: Adobe Illustrator 16.0.0, SVG Export Plug-In . SVG Version: 6.00 Build 0)  -->
<!DOCTYPE svg PUBLIC "-//W3C//DTD SVG 1.1//EN" "http://www.w3.org/Graphics/SVG/1.1/DTD/svg11.dtd">
<svg version="1.1" id="Layer_1" xmlns="http://www.w3.org/2000/svg" xmlns:xlink="http://www.w3.org/1999/xlink" x="0px" y="0px"
	 width="1024px" height="1024px" viewBox="-256 -256 1024 1024" enable-background="new -256 -256 1024 1024" xml:space="preserve">
<g>
	<g>
		<path fill="#009444" d="M756.645,698.121c0,32.227-26.367,58.594-58.594,58.594h-882.812c-32.227,0-58.594-26.367-58.594-58.594
			v-882.812c0-32.227,26.367-58.594,58.594-58.594h882.812c32.227,0,58.594,26.367,58.594,58.594V698.121z"/>
	</g>
	<g>
		<path fill="#FFFFFF" d="M335.246,456.605c-24.364,9.614-50.861,14.953-78.602,14.953c-118.466,0-214.845-96.374-214.845-214.844
			c0-118.464,96.379-214.844,214.845-214.844c118.462,0,214.844,96.379,214.844,214.84c0,27.744-5.339,54.249-14.961,78.615
			l58.847,58.846c21.828-41.001,34.239-87.769,34.239-137.457c0-161.804-131.172-292.969-292.969-292.969
			c-161.803,0-292.97,131.165-292.97,292.969c0,161.803,131.167,292.969,292.97,292.969c49.683,0,96.45-12.405,137.451-34.231
			L335.246,456.605z"/>
		<path fill="#FFFFFF" d="M494.132,428.17l-56.274-56.267c-16.926,26.535-39.497,49.11-66.032,66.032L428.1,494.21
			C453.476,475.854,475.78,453.554,494.132,428.17z"/>
	</g>
	
		<rect x="322.141" y="386.06" transform="matrix(0.7071 0.7071 -0.7071 0.7071 432.7357 -179.2095)" fill="#FFFFFF" width="221.103" height="93.386"/>
</g>
</svg>
